<svg width="156" height="163" viewBox="0 0 156 163" fill="none" xmlns="http://www.w3.org/2000/svg">
<g filter="url(#filter0_d)">
<path d="M73.7161 138.498C105.592 138.498 131.432 111.076 131.432 77.2491C131.432 43.4221 105.592 16 73.7161 16C41.8404 16 16 43.4221 16 77.2491C16 111.076 41.8404 138.498 73.7161 138.498Z" fill="white"/>
</g>
<path opacity="0.2" d="M73.716 121.955C63.9697 121.955 54.525 118.369 46.9911 111.807C39.4572 105.246 34.3002 96.1149 32.3988 85.9707C30.4975 75.8266 31.9694 65.2967 36.5638 56.1751C41.1582 47.0535 48.5908 39.9047 57.5952 35.9467C66.5995 31.9887 76.6186 31.4664 85.9452 34.4688C95.2717 37.4712 103.329 43.8125 108.744 52.4123C114.158 61.0121 116.596 71.3382 115.64 81.6313C114.685 91.9243 110.396 101.547 103.504 108.861C99.6017 113.025 94.9593 116.327 89.8461 118.574C84.7329 120.822 79.2505 121.971 73.716 121.955ZM73.716 35.3003C51.9196 35.3003 34.187 54.1184 34.187 77.249C34.187 100.38 51.9196 119.198 73.716 119.198C95.5123 119.198 113.245 100.38 113.245 77.249C113.245 54.1184 95.5123 35.3003 73.716 35.3003Z" fill="black"/>
<path d="M73.716 120.576C96.2647 120.576 114.544 101.178 114.544 77.2491C114.544 53.32 96.2647 33.9218 73.716 33.9218C51.1673 33.9218 32.8879 53.32 32.8879 77.2491C32.8879 101.178 51.1673 120.576 73.716 120.576Z" fill="#3F3D56"/>
<path d="M43.3531 59.9243C43.0435 59.2807 42.8564 58.5787 42.8026 57.8584C42.7488 57.138 42.8293 56.4135 43.0395 55.7262C43.2497 55.0389 43.5855 54.4023 44.0277 53.8528C44.4699 53.3033 45.0098 52.8517 45.6166 52.5238C46.2234 52.1959 46.8851 51.9981 47.5639 51.9418C48.2428 51.8854 48.9254 51.9716 49.5728 52.1955C50.2203 52.4193 50.8198 52.7763 51.3371 53.2461C51.8544 53.716 52.2794 54.2894 52.5878 54.9337L64.1227 78.9714C64.4324 79.6149 64.6194 80.317 64.6733 81.0373C64.7271 81.7576 64.6466 82.4822 64.4364 83.1695C64.2261 83.8568 63.8903 84.4933 63.4481 85.0428C63.0059 85.5923 62.466 86.0439 61.8592 86.3718C61.2525 86.6997 60.5908 86.8975 59.9119 86.9539C59.2331 87.0102 58.5504 86.924 57.903 86.7002C57.2556 86.4764 56.6561 86.1194 56.1387 85.6495C55.6214 85.1797 55.1964 84.6062 54.8881 83.962L43.3531 59.9243Z" fill="#FF6584"/>
<path opacity="0.2" d="M44.6396 62.6054L44.1072 61.496C46.7642 59.3051 49.8842 57.6939 53.3419 56.5054L53.8743 57.6148C50.132 58.4418 46.9481 59.9723 44.6396 62.6054Z" fill="black"/>
<path opacity="0.2" d="M47.1241 67.7828L46.5917 66.6733C49.2487 64.4825 52.3687 62.8713 55.8264 61.6827L56.3588 62.7922C52.6165 63.6192 49.4326 65.1497 47.1241 67.7828Z" fill="black"/>
<path opacity="0.2" d="M49.6086 72.96L49.0762 71.8506C51.7331 69.6597 54.8531 68.0485 58.3109 66.86L58.8433 67.9694C55.1009 68.7964 51.9171 70.3269 49.6086 72.96Z" fill="black"/>
<path opacity="0.2" d="M52.0931 78.1374L51.5607 77.0279C54.2176 74.8371 57.3376 73.2259 60.7954 72.0374L61.3278 73.1468C57.5854 73.9738 54.4016 75.5043 52.0931 78.1374Z" fill="black"/>
<path opacity="0.2" d="M54.5775 83.3149L54.0451 82.2054C56.7021 80.0146 59.8221 78.4034 63.2798 77.2148L63.8122 78.3243C60.0699 79.1513 56.886 80.6818 54.5775 83.3149Z" fill="black"/>
<path d="M34.6992 68.9231C34.3896 68.2796 34.2026 67.5776 34.1489 66.8573C34.0951 66.137 34.1757 65.4125 34.3859 64.7253C34.5961 64.0381 34.9319 63.4015 35.3741 62.8521C35.8163 62.3027 36.3562 61.8511 36.9629 61.5232C37.5696 61.1953 38.2313 60.9976 38.9101 60.9412C39.5889 60.8848 40.2715 60.971 40.9189 61.1948C41.5663 61.4185 42.1658 61.7755 42.6831 62.2452C43.2004 62.715 43.6255 63.2884 43.9338 63.9326L55.4688 87.9702C56.0907 89.2696 56.2011 90.7778 55.7758 92.1635C55.3504 93.5492 54.4241 94.699 53.2004 95.3604C51.9766 96.0217 50.5555 96.1405 49.2493 95.6905C47.9431 95.2406 46.8586 94.2588 46.2341 92.9608L34.6992 68.9231Z" fill="#FF6584"/>
<path opacity="0.2" d="M35.9858 71.6042L35.4534 70.4947C38.1104 68.3039 41.2304 66.6927 44.6881 65.5042L45.2205 66.6136C41.4782 67.4406 38.2943 68.9711 35.9858 71.6042Z" fill="black"/>
<path opacity="0.2" d="M38.4703 76.7815L37.9379 75.6721C40.5948 73.4813 43.7148 71.87 47.1726 70.6815L47.705 71.791C43.9626 72.618 40.7788 74.1484 38.4703 76.7815Z" fill="black"/>
<path opacity="0.2" d="M40.9547 81.9589L40.4223 80.8495C43.0793 78.6586 46.1993 77.0474 49.657 75.8589L50.1894 76.9683C46.4471 77.7953 43.2632 79.3258 40.9547 81.9589Z" fill="black"/>
<path opacity="0.2" d="M43.4392 87.1362L42.9068 86.0267C45.5638 83.8359 48.6838 82.2247 52.1415 81.0361L52.6739 82.1456C48.9315 82.9726 45.7477 84.5031 43.4392 87.1362Z" fill="black"/>
<path opacity="0.2" d="M45.9236 92.3136L45.3912 91.2042C48.0482 89.0134 51.1682 87.4021 54.6259 86.2136L55.1583 87.3231C51.416 88.1501 48.2321 89.6805 45.9236 92.3136Z" fill="black"/>
<path d="M100.997 78.6277L101.033 78.6277C102.275 78.6388 103.492 78.2522 104.524 77.5184C105.557 76.7846 106.357 75.7377 106.82 74.5142C107.773 71.9587 108.253 69.2325 108.234 66.4845C108.169 54.8528 99.2521 45.3105 88.2922 45.1496C83.6247 45.0802 79.0781 46.7259 75.4233 49.8075C71.7685 52.8891 69.2302 57.2172 68.2389 62.0579C67.2475 66.8987 67.864 71.9543 69.9839 76.3678C72.1038 80.7813 75.5966 84.2811 79.8703 86.2738C80.9997 86.8045 82.2538 86.9606 83.4682 86.7216C84.6826 86.4826 85.8007 85.8597 86.6757 84.9347C88.5525 82.9325 90.7841 81.3444 93.242 80.262C95.6999 79.1795 98.3354 78.624 100.997 78.6277Z" fill="#E6E6E6"/>
<path d="M90.604 72.1286C94.2938 72.1286 97.285 68.9543 97.285 65.0387C97.285 61.123 94.2938 57.9487 90.604 57.9487C86.9142 57.9487 83.923 61.123 83.923 65.0387C83.923 68.9543 86.9142 72.1286 90.604 72.1286Z" fill="#F9A825"/>
<path d="M76.0839 64.2414C76.5186 64.2414 76.871 63.8674 76.871 63.4061C76.871 62.9449 76.5186 62.5709 76.0839 62.5709C75.6493 62.5709 75.2969 62.9449 75.2969 63.4061C75.2969 63.8674 75.6493 64.2414 76.0839 64.2414Z" fill="#3F3D56"/>
<path d="M50.1024 65.0291C50.537 65.0291 50.8894 64.6552 50.8894 64.1939C50.8894 63.7326 50.537 63.3586 50.1024 63.3586C49.6677 63.3586 49.3153 63.7326 49.3153 64.1939C49.3153 64.6552 49.6677 65.0291 50.1024 65.0291Z" fill="#3F3D56"/>
<path d="M80.2785 55.5854C80.7132 55.5854 81.0656 55.2114 81.0656 54.7501C81.0656 54.2889 80.7132 53.9149 80.2785 53.9149C79.8438 53.9149 79.4915 54.2889 79.4915 54.7501C79.4915 55.2114 79.8438 55.5854 80.2785 55.5854Z" fill="#3F3D56"/>
<path d="M80.2562 79.6598C80.6908 79.6598 81.0432 79.2859 81.0432 78.8246C81.0432 78.3633 80.6908 77.9894 80.2562 77.9894C79.8215 77.9894 79.4691 78.3633 79.4691 78.8246C79.4691 79.2859 79.8215 79.6598 80.2562 79.6598Z" fill="#3F3D56"/>
<path d="M95.845 53.8604C96.2797 53.8604 96.6321 53.4864 96.6321 53.0252C96.6321 52.5639 96.2797 52.1899 95.845 52.1899C95.4104 52.1899 95.058 52.5639 95.058 53.0252C95.058 53.4864 95.4104 53.8604 95.845 53.8604Z" fill="#3F3D56"/>
<path d="M44.9955 76.7057C45.4302 76.7057 45.7825 76.3318 45.7825 75.8705C45.7825 75.4092 45.4302 75.0353 44.9955 75.0353C44.5608 75.0353 44.2084 75.4092 44.2084 75.8705C44.2084 76.3318 44.5608 76.7057 44.9955 76.7057Z" fill="#3F3D56"/>
<path d="M50.7485 88.7193C51.1832 88.7193 51.5356 88.3453 51.5356 87.8841C51.5356 87.4228 51.1832 87.0488 50.7485 87.0488C50.3139 87.0488 49.9615 87.4228 49.9615 87.8841C49.9615 88.3453 50.3139 88.7193 50.7485 88.7193Z" fill="#3F3D56"/>
<path d="M86.8924 92.6105C88.5323 92.6105 89.8617 91.1997 89.8617 89.4594C89.8617 87.7191 88.5323 86.3083 86.8924 86.3083C85.2525 86.3083 83.923 87.7191 83.923 89.4594C83.923 91.1997 85.2525 92.6105 86.8924 92.6105Z" fill="#FF6584"/>
<path opacity="0.2" d="M89.1194 89.6565C89.1194 90.2833 88.8848 90.8844 88.4671 91.3276C88.0495 91.7708 87.483 92.0198 86.8924 92.0198C86.3018 92.0198 85.7353 91.7708 85.3177 91.3276C84.9 90.8844 84.6654 90.2833 84.6654 89.6565" fill="black"/>
<path opacity="0.2" d="M84.6654 89.2625C84.6654 88.6357 84.9 88.0346 85.3177 87.5914C85.7353 87.1482 86.3018 86.8992 86.8924 86.8992C87.483 86.8992 88.0495 87.1482 88.4671 87.5914C88.8848 88.0346 89.1194 88.6357 89.1194 89.2625" fill="black"/>
<path d="M85.7788 88.6716C85.8813 88.6716 85.9644 88.5394 85.9644 88.3762C85.9644 88.2131 85.8813 88.0808 85.7788 88.0808C85.6763 88.0808 85.5933 88.2131 85.5933 88.3762C85.5933 88.5394 85.6763 88.6716 85.7788 88.6716Z" fill="#FF6584"/>
<path d="M86.8924 88.2778C86.9948 88.2778 87.0779 88.1456 87.0779 87.9824C87.0779 87.8193 86.9948 87.687 86.8924 87.687C86.7899 87.687 86.7068 87.8193 86.7068 87.9824C86.7068 88.1456 86.7899 88.2778 86.8924 88.2778Z" fill="#FF6584"/>
<path d="M86.8924 90.8381C86.9948 90.8381 87.0779 90.7059 87.0779 90.5427C87.0779 90.3796 86.9948 90.2473 86.8924 90.2473C86.7899 90.2473 86.7068 90.3796 86.7068 90.5427C86.7068 90.7059 86.7899 90.8381 86.8924 90.8381Z" fill="#FF6584"/>
<path d="M88.0059 89.2625C88.1084 89.2625 88.1914 89.1302 88.1914 88.967C88.1914 88.8039 88.1084 88.6716 88.0059 88.6716C87.9034 88.6716 87.8203 88.8039 87.8203 88.967C87.8203 89.1302 87.9034 89.2625 88.0059 89.2625Z" fill="#FF6584"/>
<path d="M87.8203 91.429C87.9228 91.429 88.0059 91.2967 88.0059 91.1336C88.0059 90.9704 87.9228 90.8381 87.8203 90.8381C87.7178 90.8381 87.6347 90.9704 87.6347 91.1336C87.6347 91.2967 87.7178 91.429 87.8203 91.429Z" fill="#FF6584"/>
<path d="M85.5933 90.4442C85.6958 90.4442 85.7789 90.312 85.7789 90.1488C85.7789 89.9857 85.6958 89.8534 85.5933 89.8534C85.4908 89.8534 85.4077 89.9857 85.4077 90.1488C85.4077 90.312 85.4908 90.4442 85.5933 90.4442Z" fill="#FF6584"/>
<path d="M92.831 84.142C94.4709 84.142 95.8003 82.7312 95.8003 80.9909C95.8003 79.2506 94.4709 77.8398 92.831 77.8398C91.1911 77.8398 89.8617 79.2506 89.8617 80.9909C89.8617 82.7312 91.1911 84.142 92.831 84.142Z" fill="#FF6584"/>
<path opacity="0.2" d="M95.058 81.1879C95.058 81.8147 94.8233 82.4158 94.4057 82.859C93.9881 83.3022 93.4216 83.5512 92.831 83.5512C92.2404 83.5512 91.6739 83.3022 91.2563 82.859C90.8386 82.4158 90.604 81.8147 90.604 81.1879" fill="black"/>
<path opacity="0.2" d="M90.604 80.7939C90.604 80.1672 90.8386 79.5661 91.2563 79.1229C91.6739 78.6797 92.2404 78.4307 92.831 78.4307C93.4216 78.4307 93.9881 78.6797 94.4057 79.1229C94.8233 79.5661 95.058 80.1672 95.058 80.7939" fill="black"/>
<path d="M91.7175 80.2031C91.82 80.2031 91.9031 80.0709 91.9031 79.9077C91.9031 79.7446 91.82 79.6123 91.7175 79.6123C91.615 79.6123 91.5319 79.7446 91.5319 79.9077C91.5319 80.0709 91.615 80.2031 91.7175 80.2031Z" fill="#FF6584"/>
<path d="M92.831 79.8093C92.9335 79.8093 93.0165 79.6771 93.0165 79.5139C93.0165 79.3508 92.9335 79.2185 92.831 79.2185C92.7285 79.2185 92.6454 79.3508 92.6454 79.5139C92.6454 79.6771 92.7285 79.8093 92.831 79.8093Z" fill="#FF6584"/>
<path d="M92.831 82.3695C92.9335 82.3695 93.0165 82.2373 93.0165 82.0741C93.0165 81.9109 92.9335 81.7787 92.831 81.7787C92.7285 81.7787 92.6454 81.9109 92.6454 82.0741C92.6454 82.2373 92.7285 82.3695 92.831 82.3695Z" fill="#FF6584"/>
<path d="M93.9445 80.7939C94.047 80.7939 94.1301 80.6617 94.1301 80.4985C94.1301 80.3354 94.047 80.2031 93.9445 80.2031C93.842 80.2031 93.7589 80.3354 93.7589 80.4985C93.7589 80.6617 93.842 80.7939 93.9445 80.7939Z" fill="#FF6584"/>
<path d="M93.7589 82.9605C93.8614 82.9605 93.9445 82.8282 93.9445 82.665C93.9445 82.5019 93.8614 82.3696 93.7589 82.3696C93.6564 82.3696 93.5733 82.5019 93.5733 82.665C93.5733 82.8282 93.6564 82.9605 93.7589 82.9605Z" fill="#FF6584"/>
<path d="M91.5319 81.9756C91.6344 81.9756 91.7175 81.8433 91.7175 81.6802C91.7175 81.517 91.6344 81.3848 91.5319 81.3848C91.4294 81.3848 91.3463 81.517 91.3463 81.6802C91.3463 81.8433 91.4294 81.9756 91.5319 81.9756Z" fill="#FF6584"/>
<path d="M98.7696 88.4748C100.41 88.4748 101.739 87.064 101.739 85.3237C101.739 83.5834 100.41 82.1726 98.7696 82.1726C97.1297 82.1726 95.8003 83.5834 95.8003 85.3237C95.8003 87.064 97.1297 88.4748 98.7696 88.4748Z" fill="#6C63FF"/>
<path opacity="0.2" d="M100.997 85.5206C100.997 86.1474 100.762 86.7485 100.344 87.1918C99.9267 87.635 99.3602 87.8839 98.7696 87.8839C98.179 87.8839 97.6125 87.635 97.1949 87.1918C96.7772 86.7485 96.5426 86.1474 96.5426 85.5206" fill="black"/>
<path opacity="0.2" d="M96.5426 85.1267C96.5426 84.5 96.7772 83.8988 97.1949 83.4556C97.6125 83.0124 98.179 82.7634 98.7696 82.7634C99.3602 82.7634 99.9267 83.0124 100.344 83.4556C100.762 83.8988 100.997 84.5 100.997 85.1267" fill="black"/>
<path d="M97.6561 84.5359C97.7586 84.5359 97.8417 84.4036 97.8417 84.2405C97.8417 84.0773 97.7586 83.9451 97.6561 83.9451C97.5536 83.9451 97.4705 84.0773 97.4705 84.2405C97.4705 84.4036 97.5536 84.5359 97.6561 84.5359Z" fill="#6C63FF"/>
<path d="M98.7696 84.1421C98.8721 84.1421 98.9552 84.0098 98.9552 83.8467C98.9552 83.6835 98.8721 83.5513 98.7696 83.5513C98.6671 83.5513 98.584 83.6835 98.584 83.8467C98.584 84.0098 98.6671 84.1421 98.7696 84.1421Z" fill="#6C63FF"/>
<path d="M98.7696 86.7023C98.8721 86.7023 98.9552 86.57 98.9552 86.4069C98.9552 86.2437 98.8721 86.1115 98.7696 86.1115C98.6671 86.1115 98.584 86.2437 98.584 86.4069C98.584 86.57 98.6671 86.7023 98.7696 86.7023Z" fill="#6C63FF"/>
<path d="M99.8831 85.1267C99.9856 85.1267 100.069 84.9944 100.069 84.8313C100.069 84.6681 99.9856 84.5359 99.8831 84.5359C99.7806 84.5359 99.6975 84.6681 99.6975 84.8313C99.6975 84.9944 99.7806 85.1267 99.8831 85.1267Z" fill="#6C63FF"/>
<path d="M99.6975 87.2931C99.8 87.2931 99.8831 87.1608 99.8831 86.9977C99.8831 86.8345 99.8 86.7023 99.6975 86.7023C99.595 86.7023 99.512 86.8345 99.512 86.9977C99.512 87.1608 99.595 87.2931 99.6975 87.2931Z" fill="#6C63FF"/>
<path d="M97.4706 86.3084C97.573 86.3084 97.6561 86.1761 97.6561 86.0129C97.6561 85.8498 97.573 85.7175 97.4706 85.7175C97.3681 85.7175 97.285 85.8498 97.285 86.0129C97.285 86.1761 97.3681 86.3084 97.4706 86.3084Z" fill="#6C63FF"/>
<path d="M83.9231 88.8687C85.563 88.8687 86.8924 87.4579 86.8924 85.7176C86.8924 83.9773 85.563 82.5665 83.9231 82.5665C82.2831 82.5665 80.9537 83.9773 80.9537 85.7176C80.9537 87.4579 82.2831 88.8687 83.9231 88.8687Z" fill="#6C63FF"/>
<path opacity="0.2" d="M86.15 85.9146C86.15 86.5413 85.9154 87.1425 85.4978 87.5857C85.0801 88.0289 84.5137 88.2779 83.923 88.2779C83.3324 88.2779 82.766 88.0289 82.3483 87.5857C81.9307 87.1425 81.696 86.5413 81.696 85.9146" fill="black"/>
<path opacity="0.2" d="M81.696 85.5207C81.696 84.8939 81.9307 84.2928 82.3483 83.8495C82.766 83.4063 83.3324 83.1573 83.923 83.1573C84.5137 83.1573 85.0801 83.4063 85.4978 83.8495C85.9154 84.2928 86.15 84.8939 86.15 85.5207" fill="black"/>
<path d="M82.8096 84.9298C82.9121 84.9298 82.9952 84.7976 82.9952 84.6344C82.9952 84.4712 82.9121 84.339 82.8096 84.339C82.7071 84.339 82.624 84.4712 82.624 84.6344C82.624 84.7976 82.7071 84.9298 82.8096 84.9298Z" fill="#6C63FF"/>
<path d="M83.9231 84.5359C84.0256 84.5359 84.1087 84.4036 84.1087 84.2405C84.1087 84.0773 84.0256 83.9451 83.9231 83.9451C83.8206 83.9451 83.7375 84.0773 83.7375 84.2405C83.7375 84.4036 83.8206 84.5359 83.9231 84.5359Z" fill="#6C63FF"/>
<path d="M83.9231 87.0962C84.0256 87.0962 84.1087 86.9639 84.1087 86.8008C84.1087 86.6376 84.0256 86.5054 83.9231 86.5054C83.8206 86.5054 83.7375 86.6376 83.7375 86.8008C83.7375 86.9639 83.8206 87.0962 83.9231 87.0962Z" fill="#6C63FF"/>
<path d="M85.0365 85.5206C85.139 85.5206 85.2221 85.3884 85.2221 85.2252C85.2221 85.0621 85.139 84.9298 85.0365 84.9298C84.934 84.9298 84.851 85.0621 84.851 85.2252C84.851 85.3884 84.934 85.5206 85.0365 85.5206Z" fill="#6C63FF"/>
<path d="M84.851 87.687C84.9535 87.687 85.0366 87.5548 85.0366 87.3916C85.0366 87.2285 84.9535 87.0962 84.851 87.0962C84.7485 87.0962 84.6654 87.2285 84.6654 87.3916C84.6654 87.5548 84.7485 87.687 84.851 87.687Z" fill="#6C63FF"/>
<path d="M82.6239 86.7023C82.7264 86.7023 82.8095 86.57 82.8095 86.4069C82.8095 86.2437 82.7264 86.1115 82.6239 86.1115C82.5214 86.1115 82.4384 86.2437 82.4384 86.4069C82.4384 86.57 82.5214 86.7023 82.6239 86.7023Z" fill="#6C63FF"/>
<path d="M90.604 90.2472C92.244 90.2472 93.5734 88.8364 93.5734 87.0961C93.5734 85.3559 92.244 83.9451 90.604 83.9451C88.9641 83.9451 87.6347 85.3559 87.6347 87.0961C87.6347 88.8364 88.9641 90.2472 90.604 90.2472Z" fill="#6C63FF"/>
<path opacity="0.2" d="M92.831 87.2932C92.831 87.6036 92.7734 87.9109 92.6615 88.1976C92.5496 88.4843 92.3855 88.7449 92.1787 88.9643C91.9719 89.1838 91.7264 89.3578 91.4562 89.4766C91.186 89.5954 90.8965 89.6565 90.604 89.6565C90.3116 89.6565 90.022 89.5954 89.7518 89.4766C89.4816 89.3578 89.2361 89.1838 89.0293 88.9643C88.8225 88.7449 88.6584 88.4843 88.5465 88.1976C88.4346 87.9109 88.377 87.6036 88.377 87.2932" fill="black"/>
<path opacity="0.2" d="M88.377 86.8992C88.377 86.5888 88.4346 86.2815 88.5465 85.9948C88.6584 85.7081 88.8225 85.4475 89.0293 85.2281C89.2361 85.0086 89.4816 84.8346 89.7518 84.7158C90.022 84.597 90.3116 84.5359 90.604 84.5359C90.8965 84.5359 91.186 84.597 91.4562 84.7158C91.7264 84.8346 91.9719 85.0086 92.1787 85.2281C92.3855 85.4475 92.5496 85.7081 92.6615 85.9948C92.7734 86.2815 92.831 86.5888 92.831 86.8992" fill="black"/>
<path d="M89.4905 86.3084C89.593 86.3084 89.6761 86.1761 89.6761 86.0129C89.6761 85.8498 89.593 85.7175 89.4905 85.7175C89.388 85.7175 89.3049 85.8498 89.3049 86.0129C89.3049 86.1761 89.388 86.3084 89.4905 86.3084Z" fill="#6C63FF"/>
<path d="M90.604 85.9146C90.7065 85.9146 90.7896 85.7823 90.7896 85.6191C90.7896 85.456 90.7065 85.3237 90.604 85.3237C90.5015 85.3237 90.4184 85.456 90.4184 85.6191C90.4184 85.7823 90.5015 85.9146 90.604 85.9146Z" fill="#6C63FF"/>
<path d="M90.604 88.4747C90.7065 88.4747 90.7896 88.3425 90.7896 88.1793C90.7896 88.0162 90.7065 87.8839 90.604 87.8839C90.5015 87.8839 90.4184 88.0162 90.4184 88.1793C90.4184 88.3425 90.5015 88.4747 90.604 88.4747Z" fill="#6C63FF"/>
<path d="M91.7175 86.8992C91.82 86.8992 91.9031 86.7669 91.9031 86.6038C91.9031 86.4406 91.82 86.3083 91.7175 86.3083C91.615 86.3083 91.5319 86.4406 91.5319 86.6038C91.5319 86.7669 91.615 86.8992 91.7175 86.8992Z" fill="#6C63FF"/>
<path d="M91.5319 89.0656C91.6344 89.0656 91.7175 88.9333 91.7175 88.7701C91.7175 88.607 91.6344 88.4747 91.5319 88.4747C91.4294 88.4747 91.3463 88.607 91.3463 88.7701C91.3463 88.9333 91.4294 89.0656 91.5319 89.0656Z" fill="#6C63FF"/>
<path d="M89.305 88.0808C89.4074 88.0808 89.4905 87.9486 89.4905 87.7854C89.4905 87.6223 89.4074 87.49 89.305 87.49C89.2025 87.49 89.1194 87.6223 89.1194 87.7854C89.1194 87.9486 89.2025 88.0808 89.305 88.0808Z" fill="#6C63FF"/>
<path d="M95.2435 93.5952C96.8835 93.5952 98.2129 92.1845 98.2129 90.4442C98.2129 88.7039 96.8835 87.2931 95.2435 87.2931C93.6036 87.2931 92.2742 88.7039 92.2742 90.4442C92.2742 92.1845 93.6036 93.5952 95.2435 93.5952Z" fill="#FF6584"/>
<path opacity="0.2" d="M97.4706 90.6411C97.4706 91.2679 97.2359 91.869 96.8183 92.3122C96.4007 92.7554 95.8342 93.0044 95.2436 93.0044C94.653 93.0044 94.0865 92.7554 93.6689 92.3122C93.2512 91.869 93.0166 91.2679 93.0166 90.6411" fill="black"/>
<path opacity="0.2" d="M93.0166 90.2473C93.0166 89.6206 93.2512 89.0194 93.6689 88.5762C94.0865 88.133 94.653 87.884 95.2436 87.884C95.8342 87.884 96.4007 88.133 96.8183 88.5762C97.2359 89.0194 97.4706 89.6206 97.4706 90.2473" fill="black"/>
<path d="M94.13 89.6565C94.2325 89.6565 94.3156 89.5242 94.3156 89.3611C94.3156 89.1979 94.2325 89.0657 94.13 89.0657C94.0275 89.0657 93.9445 89.1979 93.9445 89.3611C93.9445 89.5242 94.0275 89.6565 94.13 89.6565Z" fill="#FF6584"/>
<path d="M95.2436 89.2625C95.3461 89.2625 95.4291 89.1302 95.4291 88.967C95.4291 88.8039 95.3461 88.6716 95.2436 88.6716C95.1411 88.6716 95.058 88.8039 95.058 88.967C95.058 89.1302 95.1411 89.2625 95.2436 89.2625Z" fill="#FF6584"/>
<path d="M95.2436 91.8228C95.3461 91.8228 95.4291 91.6905 95.4291 91.5273C95.4291 91.3642 95.3461 91.2319 95.2436 91.2319C95.1411 91.2319 95.058 91.3642 95.058 91.5273C95.058 91.6905 95.1411 91.8228 95.2436 91.8228Z" fill="#FF6584"/>
<path d="M96.357 90.2473C96.4595 90.2473 96.5426 90.1151 96.5426 89.9519C96.5426 89.7888 96.4595 89.6565 96.357 89.6565C96.2545 89.6565 96.1714 89.7888 96.1714 89.9519C96.1714 90.1151 96.2545 90.2473 96.357 90.2473Z" fill="#FF6584"/>
<path d="M96.1715 92.4136C96.274 92.4136 96.3571 92.2813 96.3571 92.1182C96.3571 91.955 96.274 91.8228 96.1715 91.8228C96.069 91.8228 95.9859 91.955 95.9859 92.1182C95.9859 92.2813 96.069 92.4136 96.1715 92.4136Z" fill="#FF6584"/>
<path d="M93.9445 91.429C94.047 91.429 94.1301 91.2967 94.1301 91.1336C94.1301 90.9704 94.047 90.8381 93.9445 90.8381C93.842 90.8381 93.7589 90.9704 93.7589 91.1336C93.7589 91.2967 93.842 91.429 93.9445 91.429Z" fill="#FF6584"/>
<path d="M57.0583 79.2659C57.493 79.2659 57.8454 78.892 57.8454 78.4307C57.8454 77.9694 57.493 77.5955 57.0583 77.5955C56.6237 77.5955 56.2713 77.9694 56.2713 78.4307C56.2713 78.892 56.6237 79.2659 57.0583 79.2659Z" fill="#3F3D56"/>
<path d="M78.4518 108.747L59.5497 103.185L60.2738 100.33L79.1759 105.893L78.4518 108.747Z" fill="#F9A825"/>
<path d="M75.6808 107.793C69.2079 109.108 62.5586 109.108 56.0857 107.793V104.835C62.5731 105.976 69.1933 105.976 75.6808 104.835V107.793Z" fill="#F9A825"/>
<path d="M77.6953 98.9172C71.2224 100.232 64.5731 100.232 58.1002 98.9172V95.9585C64.5876 97.0995 71.2078 97.0995 77.6953 95.9585V98.9172Z" fill="#F9A825"/>
<path d="M84.4712 102.468C77.9983 103.783 71.349 103.783 64.8761 102.468V99.509C71.3636 100.65 77.9838 100.65 84.4712 99.509V102.468Z" fill="#F9A825"/>
<path d="M86.1193 105.821C79.6464 107.136 72.9972 107.136 66.5242 105.821V102.862C73.0117 104.003 79.6319 104.003 86.1193 102.862V105.821Z" fill="#F9A825"/>
<path d="M91.8656 110.203L72.5332 113.649L72.0849 110.73L91.417 107.283L91.8656 110.203Z" fill="#F9A825"/>
<path d="M88.9779 110.582C83.6181 114.682 77.5773 117.672 71.1727 119.395L70.0257 116.706C76.3743 114.82 82.3889 111.843 87.8309 107.894L88.9779 110.582Z" fill="#F9A825"/>
<path d="M87.3673 101.611C82.0075 105.711 75.9667 108.7 69.5621 110.423L68.4151 107.735C74.7637 105.848 80.7783 102.871 86.2203 98.9221L87.3673 101.611Z" fill="#F9A825"/>
<path d="M94.9006 101.789C89.5408 105.889 83.5 108.879 77.0954 110.602L75.9484 107.914C82.297 106.027 88.3116 103.05 93.7536 99.1008L94.9006 101.789Z" fill="#F9A825"/>
<path d="M97.6982 104.095C92.3384 108.195 86.2976 111.185 79.893 112.908L78.746 110.219C85.0946 108.333 91.1092 105.356 96.5512 101.406L97.6982 104.095Z" fill="#F9A825"/>
<path d="M74.2727 98.3219H73.3448V99.3066H74.2727V98.3219Z" fill="#00BF71"/>
<path d="M77.0565 115.456H76.1286V116.441H77.0565V115.456Z" fill="#00BF71"/>
<path d="M62.21 98.3219H61.282V99.3066H62.21V98.3219Z" fill="#00BF71"/>
<path d="M83.7375 110.532H82.8096V111.517H83.7375V110.532Z" fill="#00BF71"/>
<path d="M84.2942 104.821H83.3663V105.806H84.2942V104.821Z" fill="#00BF71"/>
<path d="M68.9872 102.125L67.9122 101.351L67.4954 102.003L68.5704 102.777L68.9872 102.125Z" fill="#00BF71"/>
<path d="M79.9366 104.291L78.8616 103.517L78.4448 104.169L79.5198 104.943L79.9366 104.291Z" fill="#00BF71"/>
<path d="M66.5747 108.033L65.4996 107.259L65.0829 107.911L66.1579 108.685L66.5747 108.033Z" fill="#00BF71"/>
<path d="M73.3801 107.976L74.1094 106.835L73.4952 106.393L72.7658 107.533L73.3801 107.976Z" fill="#00BF71"/>
<path d="M78.3908 109.354L79.1202 108.214L78.5059 107.771L77.7765 108.912L78.3908 109.354Z" fill="#00BF71"/>
<path d="M91.7541 104.628L92.4834 103.487L91.8691 103.045L91.1398 104.185L91.7541 104.628Z" fill="#00BF71"/>
<defs>
<filter id="filter0_d" x="0" y="0" width="155.432" height="162.498" filterUnits="userSpaceOnUse" color-interpolation-filters="sRGB">
<feFlood flood-opacity="0" result="BackgroundImageFix"/>
<feColorMatrix in="SourceAlpha" type="matrix" values="0 0 0 0 0 0 0 0 0 0 0 0 0 0 0 0 0 0 127 0" result="hardAlpha"/>
<feOffset dx="4" dy="4"/>
<feGaussianBlur stdDeviation="10"/>
<feComposite in2="hardAlpha" operator="out"/>
<feColorMatrix type="matrix" values="0 0 0 0 0 0 0 0 0 0 0 0 0 0 0 0 0 0 0.25 0"/>
<feBlend mode="normal" in2="BackgroundImageFix" result="effect1_dropShadow"/>
<feBlend mode="normal" in="SourceGraphic" in2="effect1_dropShadow" result="shape"/>
</filter>
</defs>
</svg>
