<svg width="25" height="23" viewBox="0 0 25 23" fill="none" xmlns="http://www.w3.org/2000/svg">
<g clip-path="url(#clip0)">
<path d="M12.5607 11.5177L17.7327 11.2595L17.4509 11.659C15.2134 14.8318 14.5858 18.6252 15.7088 22.1893H9.15938L9.35145 21.135C9.87545 18.2586 9.377 15.3164 7.91843 12.6766L7.1355 11.2595L12.5607 11.5177Z" fill="#0DBB67"/>
<path d="M4.95887 12.98C7.33649 12.98 9.26393 11.3625 9.26393 9.36713C9.26393 7.37181 7.33649 5.75427 4.95887 5.75427C2.58125 5.75427 0.653809 7.37181 0.653809 9.36713C0.653809 11.3625 2.58125 12.98 4.95887 12.98Z" fill="#09EB7E"/>
<path d="M10.5302 10.6422C12.9078 10.6422 14.8352 9.02469 14.8352 7.02937C14.8352 5.03404 12.9078 3.4165 10.5302 3.4165C8.15254 3.4165 6.2251 5.03404 6.2251 7.02937C6.2251 9.02469 8.15254 10.6422 10.5302 10.6422Z" fill="#09EB7E"/>
<path d="M19.6469 12.7675C22.0245 12.7675 23.9519 11.1499 23.9519 9.15461C23.9519 7.15928 22.0245 5.54175 19.6469 5.54175C17.2692 5.54175 15.3418 7.15928 15.3418 9.15461C15.3418 11.1499 17.2692 12.7675 19.6469 12.7675Z" fill="#09EB7E"/>
<path d="M16.9879 7.98573C19.3655 7.98573 21.293 6.3682 21.293 4.37287C21.293 2.37754 19.3655 0.76001 16.9879 0.76001C14.6103 0.76001 12.6829 2.37754 12.6829 4.37287C12.6829 6.3682 14.6103 7.98573 16.9879 7.98573Z" fill="#09EB7E"/>
<path d="M12.4296 13.7239C14.8072 13.7239 16.7346 12.1064 16.7346 10.111C16.7346 8.1157 14.8072 6.49817 12.4296 6.49817C10.052 6.49817 8.12451 8.1157 8.12451 10.111C8.12451 12.1064 10.052 13.7239 12.4296 13.7239Z" fill="#09EB7E"/>
<path d="M8.63099 7.98573C11.0086 7.98573 12.936 6.3682 12.936 4.37287C12.936 2.37754 11.0086 0.76001 8.63099 0.76001C6.25337 0.76001 4.32593 2.37754 4.32593 4.37287C4.32593 6.3682 6.25337 7.98573 8.63099 7.98573Z" fill="#09EB7E"/>
</g>
<defs>
<clipPath id="clip0">
<rect width="23.6211" height="21.5983" fill="white" transform="translate(0.505371 0.709351)"/>
</clipPath>
</defs>
</svg>
