<svg width="28" height="37" viewBox="0 0 28 37" fill="none" xmlns="http://www.w3.org/2000/svg">
<path d="M27.9405 26.3311C28.0208 25.4283 27.7842 24.5329 27.3705 23.7264C26.0758 21.203 25.8182 18.2736 26.6527 15.563L26.6756 15.4884L28 11.186L21.4335 13.8524C18.9373 14.866 17.1642 17.1252 16.7728 19.7907V18.1915C16.7728 16.3923 16.9156 14.5958 17.1999 12.8192L17.5504 10.6291C18.0269 7.65147 17.4534 4.60081 15.9281 1.99949L14.7557 0L14.4304 2.21933C14.0705 4.67479 12.8482 6.92194 10.9825 8.55838C7.4297 11.6746 6.24886 16.7036 8.04344 21.0754L8.57572 22.3721L8.46396 22.2632C6.80787 20.6493 5.65335 18.5913 5.1393 16.3367L4.16111 12.0465L1.09403 18.7716C0.784757 19.4498 0.406713 20.1084 0.249547 20.837C-0.162672 22.7479 -0.0829085 26.3134 0.629219 28.3953C1.51206 32.6977 6.46393 37 13.8728 37C21.2817 37 24.9098 33.492 25.3512 32.6315C25.6052 32.1366 27.5717 30.4751 27.9405 26.3311Z" fill="#F76775"/>
</svg>
