<svg width="348" height="348" viewBox="0 0 348 348" fill="none" xmlns="http://www.w3.org/2000/svg">
<path d="M348 174C348 208.414 337.795 242.055 318.676 270.669C299.556 299.283 272.381 321.585 240.587 334.755C208.793 347.925 173.807 351.37 140.054 344.657C106.302 337.943 75.2978 321.371 50.9634 297.037L90.3614 257.639C106.904 274.181 127.98 285.446 150.924 290.01C173.869 294.574 197.652 292.232 219.265 283.279C240.878 274.327 259.351 259.166 272.349 239.714C285.346 220.263 292.283 197.394 292.283 174H348Z" fill="#03D4BB"/>
<path d="M267.241 233.873C258.23 247.864 246.202 259.66 232.039 268.397C217.875 277.134 201.936 282.59 185.389 284.364C168.842 286.139 152.108 284.187 136.414 278.652C120.72 273.117 106.464 264.139 94.6919 252.377C82.9194 240.614 73.9292 226.366 68.3805 210.677C62.8317 194.988 60.8653 178.256 62.6254 161.707C64.3854 145.159 69.8274 129.215 78.552 115.044C87.2767 100.873 99.0628 88.8342 113.046 79.8114L173.5 173.5L267.241 233.873Z" fill="white"/>
<path d="M60.1507 305.584C39.3369 287.575 23.0921 264.886 12.7504 239.38C2.40865 213.874 -1.73493 186.278 0.659969 158.86C3.05486 131.441 11.9199 104.981 26.527 81.6544C41.1341 58.3274 61.0665 38.7982 84.6871 24.6708L113.286 72.4881C97.2293 82.0917 83.6796 95.3673 73.7499 111.225C63.8202 127.082 57.7938 145.069 56.1658 163.708C54.5378 182.347 57.3546 201.106 64.3847 218.444C71.4149 235.783 82.4579 251.207 96.6068 263.449L60.1507 305.584Z" fill="#F76775"/>
<path d="M267.241 233.873C258.23 247.864 246.202 259.66 232.039 268.397C217.875 277.134 201.936 282.59 185.389 284.364C168.842 286.139 152.108 284.187 136.414 278.652C120.72 273.117 106.464 264.139 94.6919 252.377C82.9194 240.614 73.9292 226.366 68.3805 210.677C62.8317 194.988 60.8653 178.256 62.6254 161.707C64.3854 145.159 69.8274 129.215 78.552 115.044C87.2767 100.873 99.0628 88.8342 113.046 79.8114L173.5 173.5L267.241 233.873Z" fill="white"/>
<path d="M83.8006 25.2046C110.169 9.22011 140.312 0.529853 171.142 0.0234653C201.973 -0.482922 232.385 7.21275 259.264 22.3227C286.143 37.4326 308.524 59.4139 324.116 86.0164C339.708 112.619 347.951 142.887 348 173.722L292.283 173.811C292.249 152.85 286.646 132.274 276.047 114.19C265.448 96.106 250.234 81.1633 231.961 70.8918C213.689 60.6203 193.016 55.3889 172.058 55.7331C151.099 56.0774 130.609 61.9849 112.684 72.8509L83.8006 25.2046Z" fill="#005B89"/>
<path d="M267.241 233.873C258.23 247.864 246.202 259.66 232.039 268.397C217.875 277.134 201.936 282.59 185.389 284.364C168.842 286.139 152.108 284.187 136.414 278.652C120.72 273.117 106.464 264.139 94.6919 252.377C82.9194 240.614 73.9292 226.366 68.3805 210.677C62.8317 194.988 60.8653 178.256 62.6254 161.707C64.3854 145.159 69.8274 129.215 78.552 115.044C87.2767 100.873 99.0628 88.8342 113.046 79.8114L173.5 173.5L267.241 233.873Z" fill="white"/>
</svg>
