<svg width="16" height="22" viewBox="0 0 16 22" fill="none" xmlns="http://www.w3.org/2000/svg">
<path d="M15.823 15.2977C15.8682 14.7745 15.7342 14.2554 15.4993 13.7857C14.7652 12.3175 14.6191 10.6245 15.0908 9.05229L15.1064 9L15.8564 6.5L12.1874 8.0287C10.7419 8.63097 9.72029 9.94983 9.49848 11.5V11.0405C9.49848 9.6822 9.6036 8.32594 9.81289 6.98387C10.1646 4.72847 9.73934 2.4205 8.60682 0.43859L8.3562 0L8.16949 1.30697C7.96709 2.72381 7.2734 4.02452 6.20958 4.98196C4.195 6.79508 3.52521 9.67232 4.53191 12.1888L4.85645 13C3.87675 12.0203 3.19674 10.7816 2.89621 9.42914L2.35645 7L0.805142 10.4903C0.506487 11.1622 0.158512 11.8282 0.0679703 12.558C-0.075591 13.715 0.00265391 15.439 0.356328 16.5C0.856282 19 3.66054 21.5 7.8562 21.5C12.0519 21.5 14.1064 19.4615 14.3564 18.9615C14.5003 18.6738 15.6147 17.7078 15.823 15.2977Z" fill="#F76775"/>
</svg>
