<svg width="33" height="23" viewBox="0 0 33 23" fill="none" xmlns="http://www.w3.org/2000/svg">
<ellipse cx="11.405" cy="5.72615" rx="5.70249" ry="5.72615" fill="white"/>
<path d="M23 22.9999C0 22.9999 16.1406 22.9999 9.78927 22.9999C3.43799 22.9999 24.0455 22.9999 0 22.9999C0 16.6222 5.14873 11.4521 11.5 11.4521C17.8513 11.4521 23 16.6222 23 22.9999Z" fill="white"/>
<ellipse cx="23.6971" cy="7.26559" rx="4.18183" ry="4.19918" fill="white"/>
<path d="M32.2001 19.933C15.3334 19.933 27.1698 19.933 22.5122 19.933C17.8546 19.933 32.9668 19.933 15.3334 19.933C15.3334 15.256 19.1091 11.4646 23.7667 11.4646C28.4243 11.4646 32.2001 15.256 32.2001 19.933Z" fill="white"/>
</svg>
