<svg width="30" height="31" viewBox="0 0 30 31" fill="none" xmlns="http://www.w3.org/2000/svg">
<path d="M0 14.5526C0 9.02976 4.47715 4.55261 10 4.55261H20C25.5228 4.55261 30 9.02976 30 14.5526V21C30 26.5228 25.5228 31 20 31H10C4.47715 31 0 26.5228 0 21V14.5526Z" fill="white"/>
<path d="M0 7.90038C0 6.05146 1.70018 4.55261 3.79747 4.55261H26.2025C28.2998 4.55261 30 6.05146 30 7.90038V27.6522C30 29.5011 28.2998 31 26.2025 31H3.79747C1.70018 31 0 29.5011 0 27.6522V7.90038Z" fill="white"/>
<path d="M2.65826 12.0526H27.7216V17.8421C27.7216 23.3649 23.2444 27.8421 17.7216 27.8421H12.6583C7.13542 27.8421 2.65826 23.3649 2.65826 17.8421V12.0526Z" fill="#2F2E41"/>
<path d="M2.65826 14.0513C2.65826 12.9474 4.07867 12.0526 5.83083 12.0526H24.549C26.3011 12.0526 27.7216 12.9474 27.7216 14.0513V25.8434C27.7216 26.9473 26.3011 27.8421 24.549 27.8421H5.83083C4.07867 27.8421 2.65826 26.9473 2.65826 25.8434V14.0513Z" fill="#2F2E41"/>
<rect x="21.1456" y="0.5" width="2.89873" height="8.10526" rx="1.44937" fill="white" stroke="#2F2E41"/>
<rect x="5.95569" y="0.5" width="2.89873" height="8.10526" rx="1.44937" fill="white" stroke="#2F2E41"/>
<rect x="-0.693291" width="2.93657" height="7.97166" rx="1.46829" transform="matrix(0.693291 -0.720658 0.693291 0.720658 8.90125 18.423)" fill="white" stroke="#2F2E41"/>
<rect width="1.93657" height="10.1525" rx="0.968286" transform="matrix(0.693291 0.720658 -0.693291 0.720658 20.0049 15.6052)" fill="white"/>
</svg>
