<svg width="115" height="123" viewBox="0 0 115 123" fill="none" xmlns="http://www.w3.org/2000/svg">
<g filter="url(#filter0_d)">
<path d="M59.435 15.4801C59.2507 14.5586 59.0664 13.6371 59.0664 11.7942H56.1177C56.1177 13.6371 55.9334 14.5586 55.7491 15.4801C55.3805 17.3231 54.6433 19.166 53.7218 21.009H61.4622C60.5408 19.166 59.8036 17.3231 59.435 15.4801Z" fill="#004763"/>
<path d="M76.0216 107.444C76.0216 114.816 69.387 115 62.0152 115H52.9846C45.6128 115 38.9781 114.816 38.9781 107.444V45.1518C38.9781 37.7799 45.6128 32.0668 52.9846 32.0668H62.0152C69.387 32.0668 76.0216 37.7799 76.0216 45.1518V107.444Z" fill="#42CADD"/>
<path d="M53.1689 32.0668H62.1994C69.5713 32.0668 75.4687 37.7799 75.4687 45.1518L76.0216 107.444C76.0216 114.816 69.387 115 62.0151 115H52.9846" fill="#11B3C9"/>
<path d="M53.9061 32.0668H62.0152C69.387 32.0668 76.0217 37.7799 76.0217 45.1518V76.2978" fill="#1C86B6"/>
<path d="M66.8068 28.3808C66.8068 29.6709 65.8853 30.2238 64.411 30.2238H50.7731C49.2987 30.2238 48.3772 29.4866 48.3772 28.3808V21.9305C48.3772 20.6404 49.2987 19.3503 50.7731 19.3503H64.411C65.8853 19.3503 66.8068 20.6404 66.8068 21.9305V28.3808Z" fill="#0579AD"/>
<path d="M48.3772 21.7463C48.3772 20.4562 49.2987 19.1661 50.7731 19.1661H64.411C65.8853 19.1661 66.8068 20.4562 66.8068 21.7463V28.3809C66.8068 29.671 65.8853 30.2239 64.411 30.2239" fill="#005B89"/>
<path d="M66.0696 77.2193L57.592 56.9468L49.1144 77.2193C48.5615 78.3251 48.1929 79.7995 48.1929 81.0896C48.1929 86.2498 52.4317 90.4887 57.592 90.4887C62.7523 90.4887 66.9911 86.2498 66.9911 81.0896C66.9911 79.6152 66.6225 78.3251 66.0696 77.2193Z" fill="#FFFCEE"/>
<path d="M57.592 90.4887C62.7523 90.4887 66.9911 86.2498 66.9911 81.0896C66.9911 79.6152 66.6225 78.3251 66.0697 77.2193L57.592 56.9468" fill="white"/>
<path d="M66.9911 20.2718L72.1514 18.2446C73.6258 17.6917 74.363 16.033 73.8101 14.5587L69.0184 1.84223C68.4655 0.367864 66.8068 -0.369321 65.3325 0.183568L60.1722 2.21082L66.9911 20.2718Z" fill="#0579AD"/>
<path d="M60.1722 2.39514L66.9911 20.4562L72.1514 18.4289C73.6258 17.876 74.363 16.2173 73.8101 14.743" fill="#005B89"/>
<path d="M66.8068 21.7463C68.13 21.7463 69.2027 20.6736 69.2027 19.3504C69.2027 18.0272 68.13 16.9546 66.8068 16.9546C65.4836 16.9546 64.411 18.0272 64.411 19.3504C64.411 20.6736 65.4836 21.7463 66.8068 21.7463Z" fill="#1C86B6"/>
<path d="M68.4655 17.6918C69.387 18.6133 69.387 20.0876 68.4655 21.1934C67.544 22.1149 66.0696 22.1149 64.9639 21.1934" fill="#0579AD"/>
<path d="M47.7746 40.7418C49.6416 38.3251 50.4367 35.811 49.5505 35.1264C48.6644 34.4418 46.4325 35.8459 44.5655 38.2626C42.6985 40.6792 41.9034 43.1933 42.7895 43.8779C43.6757 44.5625 45.9076 43.1584 47.7746 40.7418Z" fill="#B3EBF2"/>
<path d="M44.6913 108.55C44.6913 109.287 44.507 109.84 43.7699 109.84C43.0327 109.84 42.8484 109.287 42.8484 108.55V49.2063C42.8484 48.4691 43.0327 47.9163 43.7699 47.9163C44.507 47.9163 44.6913 48.4691 44.6913 49.2063V108.55Z" fill="#B3EBF2"/>
<path d="M51.5103 27.2751C51.5103 27.4594 51.326 27.6437 51.1417 27.6437C50.9574 27.6437 50.7731 27.4594 50.7731 27.2751V22.852C50.7731 22.6677 50.9574 22.4834 51.1417 22.4834C51.326 22.4834 51.5103 22.6677 51.5103 22.852V27.2751Z" fill="#229BC6"/>
<path d="M54.0904 27.2751C54.0904 27.4594 53.9061 27.6437 53.7218 27.6437C53.5375 27.6437 53.3532 27.4594 53.3532 27.2751V22.852C53.3532 22.6677 53.5375 22.4834 53.7218 22.4834C53.9061 22.4834 54.0904 22.6677 54.0904 22.852V27.2751Z" fill="#229BC6"/>
<path d="M56.6705 27.2751C56.6705 27.4594 56.4862 27.6437 56.3019 27.6437C56.1176 27.6437 55.9333 27.4594 55.9333 27.2751V22.852C55.9333 22.6677 56.1176 22.4834 56.3019 22.4834C56.4862 22.4834 56.6705 22.6677 56.6705 22.852V27.2751Z" fill="#229BC6"/>
<path d="M59.2507 27.2751C59.2507 27.4594 59.0664 27.6437 58.8821 27.6437C58.6978 27.6437 58.5135 27.4594 58.5135 27.2751V22.852C58.5135 22.6677 58.6978 22.4834 58.8821 22.4834C59.0664 22.4834 59.2507 22.6677 59.2507 22.852V27.2751Z" fill="#229BC6"/>
<path d="M61.8309 27.2751C61.8309 27.4594 61.6466 27.6437 61.4623 27.6437C61.278 27.6437 61.0937 27.4594 61.0937 27.2751V22.852C61.0937 22.6677 61.278 22.4834 61.4623 22.4834C61.6466 22.4834 61.8309 22.6677 61.8309 22.852V27.2751Z" fill="#229BC6"/>
<path d="M64.411 27.2751C64.411 27.4594 64.2267 27.6437 64.0424 27.6437C63.8581 27.6437 63.6738 27.4594 63.6738 27.2751V22.852C63.6738 22.6677 63.8581 22.4834 64.0424 22.4834C64.2267 22.4834 64.411 22.6677 64.411 22.852V27.2751Z" fill="#229BC6"/>
</g>
<defs>
<filter id="filter0_d" x="-4" y="0" width="123" height="123" filterUnits="userSpaceOnUse" color-interpolation-filters="sRGB">
<feFlood flood-opacity="0" result="BackgroundImageFix"/>
<feColorMatrix in="SourceAlpha" type="matrix" values="0 0 0 0 0 0 0 0 0 0 0 0 0 0 0 0 0 0 127 0" result="hardAlpha"/>
<feOffset dy="4"/>
<feGaussianBlur stdDeviation="2"/>
<feComposite in2="hardAlpha" operator="out"/>
<feColorMatrix type="matrix" values="0 0 0 0 0 0 0 0 0 0 0 0 0 0 0 0 0 0 0.25 0"/>
<feBlend mode="normal" in2="BackgroundImageFix" result="effect1_dropShadow"/>
<feBlend mode="normal" in="SourceGraphic" in2="effect1_dropShadow" result="shape"/>
</filter>
</defs>
</svg>
