<svg width="23" height="21" viewBox="0 0 23 21" fill="none" xmlns="http://www.w3.org/2000/svg">
<path d="M15.0404 12.7771L8.14748 0.410278L1.2546 12.7771C0.805061 13.4517 0.505371 14.3511 0.505371 15.1381C0.505371 18.286 3.95181 20.8718 8.14748 20.8718C12.3431 20.8718 15.7896 18.286 15.7896 15.1381C15.7896 14.2387 15.4899 13.4517 15.0404 12.7771Z" fill="#02A0F5"/>
<path d="M21.637 10.3019L21.6485 10.3196L21.6615 10.3362C22.0203 10.7969 22.237 11.3039 22.237 11.8652C22.237 12.8594 21.5992 13.8378 20.4236 14.5924C19.2546 15.3427 17.6144 15.8248 15.7897 15.8248C13.9649 15.8248 12.3247 15.3427 11.1557 14.5924C9.9801 13.8378 9.34229 12.8594 9.34229 11.8652C9.34229 11.3839 9.56459 10.7897 9.91786 10.3362L9.93082 10.3196L9.94234 10.3019L15.7897 1.32628L21.637 10.3019Z" fill="#02A0F5" stroke="white"/>
</svg>
